<?xml version="1.0" encoding="UTF-8" standalone="no"?>
<!-- Generator: Gravit.io --><svg xmlns="http://www.w3.org/2000/svg" xmlns:xlink="http://www.w3.org/1999/xlink"
  style="isolation:isolate" viewBox="0 0 276 241.271" width="276pt" height="241.271pt">
  <defs>
    <clipPath id="_clipPath_LMlrg8IfDlrGLpIwJxz7sYsTAFvkltuk">
      <rect width="276" height="241.271" />
    </clipPath>
  </defs>
  <g clip-path="url(#_clipPath_LMlrg8IfDlrGLpIwJxz7sYsTAFvkltuk)">
    <path
      d=" M 207 240.145 Q 203.372 242.283 138 240.145 Q 72.913 242.397 69 240.145 Q 65.087 237.893 34.5 180.389 Q 0 125.955 0 120.633 Q 0 115.312 34.5 60.878 Q 65.192 3.366 69 1.122 Q 72.808 -1.122 138 1.122 Q 203.133 -1.104 207 1.122 Q 210.867 3.348 241.5 60.878 Q 276 115.312 276 120.633 Q 276 125.955 241.5 180.389 Q 210.628 238.007 207 240.145 Z "
      fill="rgb(0,0,0)" />
    <path d=" M 163.71 47.131 L 163.71 60.878 L 50.749 60.878 L 58 47.131 L 163.71 47.131 Z " fill="rgb(191,215,181)" />
    <path d=" M 163.71 47.131 L 163.71 60.878 L 50.749 60.878 L 58 47.131 L 163.71 47.131 Z " fill="rgb(191,215,181)" />
    <path d=" M 112.294 194.135 L 112.294 180.389 L 225.254 180.389 L 218.004 194.135 L 112.294 194.135 Z "
      fill="rgb(191,215,181)" />
    <path
      d=" M 90.395 109.073 L 90.395 73.214 L 92.599 73.214 L 92.599 73.214 Q 99.643 73.214 103.422 78.557 L 103.422 78.557 L 103.422 78.557 Q 106.829 83.409 106.829 91.425 L 106.829 91.425 L 106.829 91.425 Q 106.829 99.581 103.05 104.221 L 103.05 104.221 L 103.05 104.221 Q 99.099 109.073 91.884 109.073 L 91.884 109.073 L 90.395 109.073 Z  M 70.353 121.026 L 70.353 73.214 L 85.757 73.214 L 85.757 121.026 L 70.353 121.026 Z  M 150.749 73.214 L 150.749 111.428 L 150.749 111.428 Q 150.749 128.057 137.149 128.057 L 137.149 128.057 L 135.374 128.057 L 135.374 73.214 L 150.749 73.214 Z  M 114.273 93.71 L 114.273 73.214 L 130.106 73.214 L 130.106 109.073 L 127.529 109.073 L 127.529 109.073 Q 116.993 109.073 114.96 100.284 L 114.96 100.284 L 114.96 100.284 Q 114.273 97.436 114.273 93.71 L 114.273 93.71 Z  M 167.098 103.581 L 167.098 103.581 L 167.098 103.581 Q 157.621 103.581 157.621 96.303 L 157.621 96.303 L 157.621 96.303 Q 157.621 92.577 159.882 90.942 L 159.882 90.942 L 159.882 90.942 Q 162.144 89.307 166.783 89.307 L 166.783 89.307 L 166.783 89.307 Q 171.421 89.307 173.625 90.942 L 173.625 90.942 L 173.625 90.942 Q 175.83 92.577 175.83 96.321 L 175.83 96.321 L 175.83 96.321 Q 175.83 100.065 173.783 101.823 L 173.783 101.823 L 173.783 101.823 Q 171.736 103.581 167.098 103.581 Z  M 159.224 168.057 L 159.224 113.214 L 174.627 113.214 L 174.627 150.374 L 174.627 150.374 Q 174.627 158.882 171.764 163.171 L 171.764 163.171 L 171.764 163.171 Q 168.5 168.057 161.429 168.057 L 161.429 168.057 L 159.224 168.057 Z  M 185.736 126.714 L 185.536 126.714 L 185.536 126.714 Q 185.45 126.292 185.393 125.8 L 185.393 125.8 L 185.278 124.815 L 185.278 124.815 Q 185.164 123.76 185.164 122.337 L 185.164 122.337 L 185.164 122.337 Q 185.164 120.913 185.693 119.05 L 185.693 119.05 L 185.693 119.05 Q 186.223 117.186 187.426 115.815 L 187.426 115.815 L 187.426 115.815 Q 190.002 112.862 195.385 112.862 L 195.385 112.862 L 216.658 135.819 L 216.658 135.819 Q 216.944 137.085 216.944 139.176 L 216.944 139.176 L 216.944 139.176 Q 216.944 141.268 216.372 143.149 L 216.372 143.149 L 216.372 143.149 Q 215.799 145.03 214.539 146.401 L 214.539 146.401 L 214.539 146.401 Q 211.848 149.425 206.694 149.425 L 206.694 149.425 L 185.736 126.714 Z  M 203.344 113.214 L 217.145 113.214 L 217.145 113.214 Q 218.004 114.831 218.004 117.643 L 218.004 117.643 L 218.004 117.643 Q 218.004 122.846 214.826 125.413 L 214.826 125.413 L 203.344 113.214 Z  M 198.506 149.073 L 184.706 149.073 L 184.706 149.073 Q 183.847 147.456 183.847 144.643 L 183.847 144.643 L 183.847 144.643 Q 183.847 139.475 186.996 136.909 L 186.996 136.909 L 198.506 149.073 Z "
      fill="rgb(191,215,181)" />
  </g>
</svg>
